<svg width="147" height="46" viewBox="0 0 147 46" fill="none" xmlns="http://www.w3.org/2000/svg">
<path d="M1.34483 45.2955L2.14039 40.9433H5.93102C7.02297 40.9433 7.83414 40.7093 8.36451 40.2414C8.92609 39.8046 9.30047 39.0558 9.48766 37.9951L13.3719 16.0001H7.52215L8.22412 11.7882H14.1207L14.6822 8.55919C15.1502 5.9697 16.0706 4.11339 17.4433 2.99024C18.8472 1.86709 20.8284 1.30551 23.3866 1.30551H29.0492L28.2536 5.65772H23.1994C22.1075 5.65772 21.2807 5.87611 20.7192 6.31289C20.1888 6.74967 19.83 7.51403 19.6428 8.60599L19.0812 11.7882H27.1773L26.4285 16.0001H18.3325L14.4482 38.0419C13.9803 40.6313 13.1067 42.4877 11.8276 43.6108C10.5796 44.734 8.55171 45.2955 5.74383 45.2955H1.34483ZM37.7821 35.5616C35.9414 35.5616 34.3971 35.2496 33.1491 34.6256C31.9012 33.9704 30.9652 33.1125 30.3412 32.0517C29.7173 30.9598 29.4053 29.7742 29.4053 28.4951C29.4053 26.2176 30.232 24.4393 31.8856 23.1601C33.5703 21.881 35.9414 21.2414 38.9989 21.2414H44.989V20.7266C44.989 17.2324 43.3667 15.4853 40.122 15.4853C38.7805 15.4853 37.6417 15.7817 36.7058 16.3744C35.801 16.936 35.1926 17.8564 34.8806 19.1355H29.9201C30.1697 16.702 31.2148 14.7833 33.0555 13.3794C34.9274 11.9442 37.2829 11.2267 40.122 11.2267C43.5539 11.2267 46.0497 12.069 47.6097 13.7538C49.1696 15.4385 49.9496 17.7628 49.9496 20.7266V35H45.7378L45.3166 31.5838H44.989C44.3026 32.6757 43.4447 33.6117 42.4151 34.3916C41.3855 35.1716 39.8412 35.5616 37.7821 35.5616ZM38.7181 31.3966C40.746 31.3966 42.2591 30.7882 43.2575 29.5714C44.287 28.3235 44.8486 26.748 44.9422 24.8449H39.5136C37.7353 24.8449 36.4718 25.1412 35.723 25.734C35.0054 26.2956 34.6467 27.0912 34.6467 28.1207C34.6467 29.1503 35.0054 29.9614 35.723 30.5542C36.4718 31.1158 37.4701 31.3966 38.7181 31.3966ZM64.0642 35.5616C61.9115 35.5616 59.9772 35.0624 58.2613 34.064C56.5766 33.0657 55.2506 31.6617 54.2835 29.8522C53.3163 28.0115 52.8328 25.8588 52.8328 23.3941C52.8328 20.9294 53.3163 18.7923 54.2835 16.9828C55.2818 15.1733 56.6234 13.7694 58.3081 12.771C59.9928 11.7414 61.9115 11.2267 64.0642 11.2267C67.0281 11.2267 69.4148 11.9754 71.2243 13.473C73.065 14.9393 74.235 16.9672 74.7342 19.5567H69.5396C69.2276 18.4335 68.588 17.5444 67.6209 16.8892C66.6849 16.234 65.4838 15.9065 64.0175 15.9065C62.9567 15.9065 61.9427 16.1872 60.9756 16.7488C60.0396 17.3104 59.2753 18.1528 58.6825 19.2759C58.1209 20.3679 57.8401 21.7406 57.8401 23.3941C57.8401 25.0164 58.1209 26.3892 58.6825 27.5123C59.2753 28.6355 60.0396 29.4934 60.9756 30.0862C61.9427 30.6478 62.9567 30.9286 64.0175 30.9286C65.515 30.9286 66.7161 30.601 67.6209 29.9458C68.5256 29.2907 69.1652 28.3859 69.5396 27.2315H74.7342C74.1102 29.7898 72.8935 31.8177 71.0839 33.3153C69.2744 34.8128 66.9345 35.5616 64.0642 35.5616ZM90.1124 35C87.8349 35 86.0254 34.454 84.6838 33.3621C83.3423 32.2389 82.6715 30.2578 82.6715 27.4187V16.0001H76.8218V11.7882H80.2848C81.876 11.7882 82.8119 11.0083 83.0927 9.44835L83.7947 5.70451H87.6321V11.7882H96.8045V16.0001H87.6321V27.3251C87.6321 28.5419 87.8973 29.3999 88.4277 29.899C88.9892 30.367 89.9408 30.601 91.2823 30.601H96.7109V35H90.1124ZM111.434 35.5616C109.219 35.5616 107.238 35.0624 105.491 34.064C103.743 33.0657 102.371 31.6617 101.372 29.8522C100.374 28.0115 99.8749 25.8588 99.8749 23.3941C99.8749 20.9294 100.374 18.7923 101.372 16.9828C102.371 15.1421 103.743 13.7226 105.491 12.7242C107.238 11.7258 109.234 11.2267 111.481 11.2267C113.727 11.2267 115.708 11.7258 117.424 12.7242C119.171 13.7226 120.528 15.1421 121.496 16.9828C122.494 18.7923 122.993 20.9294 122.993 23.3941C122.993 25.8588 122.494 28.0115 121.496 29.8522C120.497 31.6617 119.124 33.0657 117.377 34.064C115.661 35.0624 113.68 35.5616 111.434 35.5616ZM111.434 30.835C112.62 30.835 113.711 30.5698 114.71 30.0394C115.708 29.509 116.504 28.6979 117.097 27.6059C117.72 26.4828 118.032 25.0788 118.032 23.3941C118.032 21.6782 117.72 20.2743 117.097 19.1823C116.504 18.0904 115.708 17.2792 114.71 16.7488C113.743 16.2184 112.666 15.9533 111.481 15.9533C110.295 15.9533 109.203 16.2184 108.205 16.7488C107.207 17.2792 106.395 18.0904 105.771 19.1823C105.179 20.2743 104.882 21.6782 104.882 23.3941C104.882 25.9524 105.522 27.8399 106.801 29.0567C108.111 30.2422 109.656 30.835 111.434 30.835ZM124.847 35V30.6946H130.509V17.638C130.509 16.6084 130.01 16.0936 129.012 16.0936H125.315V11.7882H130.884C132.163 11.7882 133.208 12.1626 134.019 12.9114C134.83 13.629 135.236 14.6429 135.236 15.9533V16.5148H135.47C135.813 14.7677 136.546 13.4574 137.669 12.5838C138.824 11.679 140.493 11.2267 142.677 11.2267H146.28V16.468H141.226C139.385 16.468 137.966 17.1076 136.967 18.3867C135.969 19.6659 135.47 21.1946 135.47 22.9729V30.6946H142.677V35H124.847Z" fill="white"/>
<path d="M1.34483 45.2955L0.792282 45.1945L0.671142 45.8572H1.34483V45.2955ZM2.14039 40.9433V40.3816H1.67206L1.58785 40.8423L2.14039 40.9433ZM8.36451 40.2414L8.01966 39.798L8.00593 39.8087L7.99288 39.8202L8.36451 40.2414ZM9.48766 37.9951L8.93452 37.8974L8.93451 37.8974L9.48766 37.9951ZM13.3719 16.0001L13.925 16.0977L14.0415 15.4383H13.3719V16.0001ZM7.52215 16.0001L6.96809 15.9077L6.85908 16.5618H7.52215V16.0001ZM8.22412 11.7882V11.2265H7.74829L7.67006 11.6959L8.22412 11.7882ZM14.1207 11.7882V12.3499H14.5931L14.6741 11.8845L14.1207 11.7882ZM14.6822 8.55919L14.1295 8.45929L14.1288 8.46295L14.6822 8.55919ZM17.4433 2.99024L17.0924 2.55159L17.0876 2.5555L17.4433 2.99024ZM29.0492 1.30551L29.6017 1.40652L29.7229 0.74381H29.0492V1.30551ZM28.2536 5.65772V6.21942H28.722L28.8062 5.75872L28.2536 5.65772ZM20.7192 6.31289L20.3743 5.8695L20.3681 5.87431L20.3621 5.87929L20.7192 6.31289ZM19.6428 8.60599L20.196 8.7036L20.1964 8.70089L19.6428 8.60599ZM19.0812 11.7882L18.5281 11.6906L18.4117 12.3499H19.0812V11.7882ZM27.1773 11.7882L27.7303 11.8866L27.8476 11.2265H27.1773V11.7882ZM26.4285 16.0001V16.5618H26.8992L26.9815 16.0984L26.4285 16.0001ZM18.3325 16.0001V15.4383H17.8611L17.7793 15.9026L18.3325 16.0001ZM14.4482 38.0419L15.001 38.1418L15.0014 38.1393L14.4482 38.0419ZM11.8276 43.6108L11.4569 43.1887L11.4518 43.1933L11.8276 43.6108ZM1.34483 45.2955L1.89738 45.3965L2.69294 41.0443L2.14039 40.9433L1.58785 40.8423L0.792282 45.1945L1.34483 45.2955ZM2.14039 40.9433V41.505H5.93102V40.9433V40.3816H2.14039V40.9433ZM5.93102 40.9433V41.505C7.08844 41.505 8.05994 41.2592 8.73615 40.6626L8.36451 40.2414L7.99288 39.8202C7.60833 40.1595 6.9575 40.3816 5.93102 40.3816V40.9433ZM8.36451 40.2414L8.70937 40.6847C9.42547 40.1278 9.8415 39.2222 10.0408 38.0927L9.48766 37.9951L8.93451 37.8974C8.75944 38.8895 8.42671 39.4814 8.01966 39.798L8.36451 40.2414ZM9.48766 37.9951L10.0408 38.0927L13.925 16.0977L13.3719 16.0001L12.8187 15.9024L8.93452 37.8974L9.48766 37.9951ZM13.3719 16.0001V15.4383H7.52215V16.0001V16.5618H13.3719V16.0001ZM7.52215 16.0001L8.07621 16.0924L8.77818 11.8806L8.22412 11.7882L7.67006 11.6959L6.96809 15.9077L7.52215 16.0001ZM8.22412 11.7882V12.3499H14.1207V11.7882V11.2265H8.22412V11.7882ZM14.1207 11.7882L14.6741 11.8845L15.2356 8.65543L14.6822 8.55919L14.1288 8.46295L13.5673 11.692L14.1207 11.7882ZM14.6822 8.55919L15.235 8.65908C15.6903 6.1394 16.5696 4.43084 17.799 3.42497L17.4433 2.99024L17.0876 2.5555C15.5715 3.79594 14.6101 5.80001 14.1295 8.45929L14.6822 8.55919ZM17.4433 2.99024L17.7942 3.42885C19.064 2.41304 20.9032 1.86722 23.3866 1.86722V1.30551V0.74381C20.7535 0.74381 18.6305 1.32113 17.0924 2.55162L17.4433 2.99024ZM23.3866 1.30551V1.86722H29.0492V1.30551V0.74381H23.3866V1.30551ZM29.0492 1.30551L28.4966 1.20451L27.7011 5.55671L28.2536 5.65772L28.8062 5.75872L29.6017 1.40652L29.0492 1.30551ZM28.2536 5.65772V5.09601H23.1994V5.65772V6.21942H28.2536V5.65772ZM23.1994 5.65772V5.09601C22.0458 5.09601 21.0749 5.32464 20.3743 5.8695L20.7192 6.31289L21.064 6.75627C21.4866 6.42758 22.1692 6.21942 23.1994 6.21942V5.65772ZM20.7192 6.31289L20.3621 5.87929C19.6804 6.44069 19.286 7.36272 19.0892 8.51108L19.6428 8.60599L20.1964 8.70089C20.374 7.66535 20.6972 7.05864 21.0762 6.74648L20.7192 6.31289ZM19.6428 8.60599L19.0897 8.50837L18.5281 11.6906L19.0812 11.7882L19.6344 11.8859L20.196 8.7036L19.6428 8.60599ZM19.0812 11.7882V12.3499H27.1773V11.7882V11.2265H19.0812V11.7882ZM27.1773 11.7882L26.6242 11.6899L25.8755 15.9017L26.4285 16.0001L26.9815 16.0984L27.7303 11.8866L27.1773 11.7882ZM26.4285 16.0001V15.4383H18.3325V16.0001V16.5618H26.4285V16.0001ZM18.3325 16.0001L17.7793 15.9026L13.8951 37.9444L14.4482 38.0419L15.0014 38.1393L18.8856 16.0975L18.3325 16.0001ZM14.4482 38.0419L13.8955 37.942C13.4384 40.471 12.601 42.1842 11.4569 43.1887L11.8276 43.6108L12.1982 44.0329C13.6124 42.7911 14.5221 40.7917 15.001 38.1418L14.4482 38.0419ZM11.8276 43.6108L11.4518 43.1933C10.3571 44.1785 8.49971 44.7338 5.74383 44.7338V45.2955V45.8572C8.6037 45.8572 10.8021 45.2894 12.2033 44.0283L11.8276 43.6108ZM5.74383 45.2955V44.7338H1.34483V45.2955V45.8572H5.74383V45.2955ZM33.1491 34.6256L32.888 35.123L32.8979 35.128L33.1491 34.6256ZM30.3412 32.0517L29.8535 32.3304L29.8571 32.3365L30.3412 32.0517ZM31.8856 23.1601L31.5459 22.7127L31.5419 22.7158L31.8856 23.1601ZM44.989 21.2414V21.8031H45.5507V21.2414H44.989ZM36.7058 16.3744L37.002 16.8517L37.0063 16.849L36.7058 16.3744ZM34.8806 19.1355V19.6972H35.3218L35.4263 19.2686L34.8806 19.1355ZM29.9201 19.1355L29.3613 19.0782L29.2978 19.6972H29.9201V19.1355ZM33.0555 13.3794L33.3962 13.826L33.3973 13.8251L33.0555 13.3794ZM47.6097 13.7538L48.0218 13.3721L47.6097 13.7538ZM49.9496 35V35.5617H50.5113V35H49.9496ZM45.7378 35L45.1803 35.0687L45.241 35.5617H45.7378V35ZM45.3166 31.5838L45.8741 31.515L45.8133 31.022H45.3166V31.5838ZM44.989 31.5838V31.022H44.6786L44.5134 31.2848L44.989 31.5838ZM42.4151 34.3916L42.0759 33.9439L42.4151 34.3916ZM43.2575 29.5714L42.8242 29.214L42.8232 29.2151L43.2575 29.5714ZM44.9422 24.8449L45.5032 24.8724L45.5322 24.2832H44.9422V24.8449ZM35.723 25.734L36.0692 26.1764L36.0717 26.1744L35.723 25.734ZM35.723 30.5542L35.3653 30.9873L35.3754 30.9957L35.386 31.0036L35.723 30.5542ZM37.7821 35.5616V34.9999C36.0019 34.9999 34.5494 34.6978 33.4003 34.1232L33.1491 34.6256L32.8979 35.128C34.2447 35.8014 35.8809 36.1233 37.7821 36.1233V35.5616ZM33.1491 34.6256L33.4102 34.1283C32.2412 33.5146 31.3889 32.7249 30.8254 31.7669L30.3412 32.0517L29.8571 32.3365C30.5415 33.5001 31.5611 34.4263 32.888 35.1229L33.1491 34.6256ZM30.3412 32.0517L30.8289 31.773C30.2543 30.7675 29.967 29.6782 29.967 28.4951H29.4053H28.8436C28.8436 29.8702 29.1802 31.1521 29.8535 32.3304L30.3412 32.0517ZM29.4053 28.4951H29.967C29.967 26.3736 30.7268 24.7667 32.2293 23.6044L31.8856 23.1601L31.5419 22.7158C29.7373 24.1119 28.8436 26.0616 28.8436 28.4951H29.4053ZM31.8856 23.1601L32.2252 23.6075C33.7773 22.4291 36.0113 21.8031 38.9989 21.8031V21.2414V20.6797C35.8715 20.6797 33.3633 21.3329 31.5459 22.7128L31.8856 23.1601ZM38.9989 21.2414V21.8031H44.989V21.2414V20.6797H38.9989V21.2414ZM44.989 21.2414H45.5507V20.7266H44.989H44.4273V21.2414H44.989ZM44.989 20.7266H45.5507C45.5507 18.9029 45.1282 17.4304 44.1839 16.4134C43.2323 15.3886 41.842 14.9236 40.122 14.9236V15.4853V16.047C41.6466 16.047 42.6899 16.4555 43.3606 17.1778C44.0386 17.908 44.4273 19.0562 44.4273 20.7266H44.989ZM40.122 15.4853V14.9236C38.6966 14.9236 37.4484 15.2392 36.4052 15.8999L36.7058 16.3744L37.0063 16.849C37.835 16.3241 38.8643 16.047 40.122 16.047V15.4853ZM36.7058 16.3744L36.4095 15.8972C35.3516 16.5538 34.6731 17.616 34.3349 19.0024L34.8806 19.1355L35.4263 19.2686C35.7122 18.0967 36.2504 17.3182 37.002 16.8517L36.7058 16.3744ZM34.8806 19.1355V18.5738H29.9201V19.1355V19.6972H34.8806V19.1355ZM29.9201 19.1355L30.4788 19.1928C30.7136 16.9038 31.6864 15.13 33.3962 13.826L33.0555 13.3794L32.7149 12.9327C30.7432 14.4366 29.6257 16.5002 29.3613 19.0782L29.9201 19.1355ZM33.0555 13.3794L33.3973 13.8251C35.1524 12.4796 37.3806 11.7884 40.122 11.7884V11.2267V10.665C37.1853 10.665 34.7025 11.4089 32.7138 12.9336L33.0555 13.3794ZM40.122 11.2267V11.7884C43.4749 11.7884 45.7871 12.6121 47.1975 14.1354L47.6097 13.7538L48.0218 13.3721C46.3124 11.5259 43.6328 10.665 40.122 10.665V11.2267ZM47.6097 13.7538L47.1975 14.1354C48.6359 15.6888 49.3879 17.8618 49.3879 20.7266H49.9496H50.5113C50.5113 17.6638 49.7033 15.1882 48.0218 13.3721L47.6097 13.7538ZM49.9496 20.7266H49.3879V35H49.9496H50.5113V20.7266H49.9496ZM49.9496 35V34.4383H45.7378V35V35.5617H49.9496V35ZM45.7378 35L46.2952 34.9313L45.8741 31.515L45.3166 31.5838L44.7591 31.6525L45.1803 35.0687L45.7378 35ZM45.3166 31.5838V31.022H44.989V31.5838V32.1455H45.3166V31.5838ZM44.989 31.5838L44.5134 31.2848C43.8632 32.3193 43.0515 33.2048 42.0759 33.9439L42.4151 34.3916L42.7543 34.8394C43.8378 34.0185 44.742 33.0321 45.4645 31.8827L44.989 31.5838ZM42.4151 34.3916L42.0759 33.9439C41.1868 34.6175 39.7863 34.9999 37.7821 34.9999V35.5616V36.1233C39.8961 36.1233 41.5843 35.7257 42.7543 34.8394L42.4151 34.3916ZM38.7181 31.3966V31.9583C40.8618 31.9583 42.5573 31.3102 43.6917 29.9277L43.2575 29.5714L42.8232 29.2151C41.9609 30.2661 40.6302 30.8349 38.7181 30.8349V31.3966ZM43.2575 29.5714L43.6907 29.9289C44.8103 28.5718 45.4048 26.8742 45.5032 24.8724L44.9422 24.8449L44.3812 24.8173C44.2924 26.6217 43.7637 28.0752 42.8242 29.214L43.2575 29.5714ZM44.9422 24.8449V24.2832H39.5136V24.8449V25.4066H44.9422V24.8449ZM39.5136 24.8449V24.2832C37.7038 24.2832 36.2774 24.5787 35.3744 25.2936L35.723 25.734L36.0717 26.1744C36.6661 25.7038 37.7668 25.4066 39.5136 25.4066V24.8449ZM35.723 25.734L35.3768 25.2917C34.5043 25.9745 34.0849 26.9439 34.0849 28.1207H34.6467H35.2084C35.2084 27.2384 35.5065 26.6167 36.0692 26.1764L35.723 25.734ZM34.6467 28.1207H34.0849C34.0849 29.2977 34.5038 30.2756 35.3653 30.9873L35.723 30.5542L36.0807 30.1211C35.5071 29.6473 35.2084 29.0029 35.2084 28.1207H34.6467ZM35.723 30.5542L35.386 31.0036C36.2599 31.659 37.3888 31.9583 38.7181 31.9583V31.3966V30.8349C37.5514 30.8349 36.6837 30.5726 36.06 30.1048L35.723 30.5542ZM58.2613 34.064L57.9749 34.5473L57.9788 34.5495L58.2613 34.064ZM54.2835 29.8522L53.7862 30.1135L53.7881 30.117L54.2835 29.8522ZM54.2835 16.9828L53.7916 16.7114L53.7881 16.718L54.2835 16.9828ZM58.3081 12.771L58.5945 13.2543L58.601 13.2503L58.3081 12.771ZM71.2243 13.473L70.8661 13.9058L70.8743 13.9123L71.2243 13.473ZM74.7342 19.5567V20.1184H75.4145L75.2857 19.4504L74.7342 19.5567ZM69.5396 19.5567L68.9984 19.707L69.1127 20.1184H69.5396V19.5567ZM67.6209 16.8892L67.2987 17.3494L67.3059 17.3543L67.6209 16.8892ZM60.9756 16.7488L60.6935 16.263L60.6866 16.2672L60.9756 16.7488ZM58.6825 19.2759L58.1857 19.0137L58.183 19.019L58.6825 19.2759ZM58.6825 27.5123L58.18 27.7636L58.1857 27.7745L58.6825 27.5123ZM60.9756 30.0862L60.675 30.5608L60.6842 30.5665L60.6935 30.572L60.9756 30.0862ZM67.6209 29.9458L67.9503 30.4008L67.6209 29.9458ZM69.5396 27.2315V26.6698H69.1313L69.0053 27.0583L69.5396 27.2315ZM74.7342 27.2315L75.2799 27.3646L75.4493 26.6698H74.7342V27.2315ZM71.0839 33.3153L70.7258 32.8825L71.0839 33.3153ZM64.0642 35.5616V34.9999C62.0021 34.9999 60.1668 34.5228 58.5438 33.5785L58.2613 34.064L57.9788 34.5495C59.7877 35.602 61.8209 36.1233 64.0642 36.1233V35.5616ZM58.2613 34.064L58.5477 33.5808C56.9556 32.6374 55.7 31.3109 54.7789 29.5875L54.2835 29.8522L53.7881 30.117C54.8012 32.0126 56.1976 33.494 57.9749 34.5473L58.2613 34.064ZM54.2835 29.8522L54.7807 29.591C53.8631 27.8445 53.3945 25.7846 53.3945 23.3941H52.8328H52.271C52.271 25.933 52.7696 28.1785 53.7862 30.1135L54.2835 29.8522ZM52.8328 23.3941H53.3945C53.3945 21.0033 53.8632 18.9608 54.7789 17.2476L54.2835 16.9828L53.7881 16.718C52.7695 18.6239 52.271 20.8555 52.271 23.3941H52.8328ZM54.2835 16.9828L54.7753 17.2542C55.7281 15.5273 57.0007 14.1987 58.5945 13.2542L58.3081 12.771L58.0217 12.2878C56.246 13.34 54.8356 14.8193 53.7917 16.7115L54.2835 16.9828ZM58.3081 12.771L58.601 13.2503C60.1896 12.2795 62.0052 11.7884 64.0642 11.7884V11.2267V10.665C61.8178 10.665 59.796 11.2034 58.0152 12.2917L58.3081 12.771ZM64.0642 11.2267V11.7884C66.9324 11.7884 69.1815 12.5114 70.8662 13.9057L71.2243 13.473L71.5825 13.0402C69.6481 11.4394 67.1238 10.665 64.0642 10.665V11.2267ZM71.2243 13.473L70.8743 13.9123C72.5976 15.2851 73.7055 17.1881 74.1826 19.663L74.7342 19.5567L75.2857 19.4504C74.7645 16.7463 73.5325 14.5935 71.5743 13.0336L71.2243 13.473ZM74.7342 19.5567V18.995H69.5396V19.5567V20.1184H74.7342V19.5567ZM69.5396 19.5567L70.0808 19.4064C69.7331 18.1545 69.0132 17.1539 67.9359 16.4242L67.6209 16.8892L67.3059 17.3543C68.1629 17.9349 68.7222 18.7126 68.9984 19.707L69.5396 19.5567ZM67.6209 16.8892L67.943 16.429C66.889 15.6913 65.5664 15.3448 64.0174 15.3448V15.9065V16.4682C65.4011 16.4682 66.4808 16.7768 67.2988 17.3494L67.6209 16.8892ZM64.0174 15.9065V15.3448C62.8522 15.3448 61.7415 15.6546 60.6935 16.2631L60.9756 16.7488L61.2576 17.2346C62.144 16.7199 63.0612 16.4682 64.0174 16.4682V15.9065ZM60.9756 16.7488L60.6866 16.2672C59.6491 16.8897 58.8185 17.8149 58.1857 19.0137L58.6825 19.2759L59.1792 19.5381C59.7321 18.4906 60.4302 17.7311 61.2646 17.2305L60.9756 16.7488ZM58.6825 19.2759L58.183 19.019C57.5689 20.2131 57.2784 21.6808 57.2784 23.3941H57.8401H58.4018C58.4018 21.8004 58.673 20.5226 59.182 19.5328L58.6825 19.2759ZM57.8401 23.3941H57.2784C57.2784 25.079 57.5698 26.543 58.1801 27.7635L58.6825 27.5123L59.1849 27.2611C58.672 26.2354 58.4018 24.9538 58.4018 23.3941H57.8401ZM58.6825 27.5123L58.1857 27.7745C58.8175 28.9715 59.6448 29.9083 60.675 30.5608L60.9756 30.0862L61.2761 29.6117C60.4345 29.0786 59.7331 28.2995 59.1792 27.2502L58.6825 27.5123ZM60.9756 30.0862L60.6935 30.572C61.7415 31.1805 62.8522 31.4903 64.0174 31.4903V30.9286V30.3669C63.0612 30.3669 62.144 30.1151 61.2576 29.6005L60.9756 30.0862ZM64.0174 30.9286V31.4903C65.5935 31.4903 66.9219 31.1455 67.9503 30.4008L67.6209 29.9458L67.2914 29.4909C66.5104 30.0565 65.4364 30.3669 64.0174 30.3669V30.9286ZM67.6209 29.9458L67.9503 30.4008C68.9599 29.6697 69.6662 28.6621 70.0739 27.4048L69.5396 27.2315L69.0053 27.0583C68.6643 28.1097 68.0914 28.9116 67.2914 29.4909L67.6209 29.9458ZM69.5396 27.2315V27.7933H74.7342V27.2315V26.6698H69.5396V27.2315ZM74.7342 27.2315L74.1885 27.0984C73.5895 29.5542 72.431 31.4713 70.7258 32.8825L71.0839 33.3153L71.4421 33.748C73.3559 32.1641 74.6309 30.0255 75.2799 27.3646L74.7342 27.2315ZM71.0839 33.3153L70.7258 32.8825C69.038 34.2794 66.8338 34.9999 64.0642 34.9999V35.5616V36.1233C67.0352 36.1233 69.5109 35.3462 71.4421 33.748L71.0839 33.3153ZM84.6838 33.3621L84.3232 33.7928L84.3292 33.7977L84.6838 33.3621ZM82.6715 16.0001H83.2332V15.4383H82.6715V16.0001ZM76.8218 16.0001H76.2601V16.5618H76.8218V16.0001ZM76.8218 11.7882V11.2265H76.2601V11.7882H76.8218ZM83.0927 9.44835L82.5406 9.34483L82.5399 9.34884L83.0927 9.44835ZM83.7947 5.70451V5.14281H83.3285L83.2426 5.601L83.7947 5.70451ZM87.6321 5.70451H88.1938V5.14281H87.6321V5.70451ZM87.6321 11.7882H87.0704V12.3499H87.6321V11.7882ZM96.8045 11.7882H97.3662V11.2265H96.8045V11.7882ZM96.8045 16.0001V16.5618H97.3662V16.0001H96.8045ZM87.6321 16.0001V15.4383H87.0704V16.0001H87.6321ZM88.4277 29.899L88.0427 30.3081L88.055 30.3197L88.0681 30.3305L88.4277 29.899ZM96.7109 30.601H97.2726V30.0393H96.7109V30.601ZM96.7109 35V35.5617H97.2726V35H96.7109ZM90.1124 35V34.4383C87.9229 34.4383 86.2519 33.9142 85.0384 32.9264L84.6838 33.3621L84.3292 33.7977C85.7989 34.9939 87.7469 35.5617 90.1124 35.5617V35ZM84.6838 33.3621L85.0444 32.9314C83.8919 31.9665 83.2332 30.1934 83.2332 27.4187H82.6715H82.1098C82.1098 30.3222 82.7927 32.5113 84.3233 33.7928L84.6838 33.3621ZM82.6715 27.4187H83.2332V16.0001H82.6715H82.1098V27.4187H82.6715ZM82.6715 16.0001V15.4383H76.8218V16.0001V16.5618H82.6715V16.0001ZM76.8218 16.0001H77.3835V11.7882H76.8218H76.2601V16.0001H76.8218ZM76.8218 11.7882V12.3499H80.2848V11.7882V11.2265H76.8218V11.7882ZM80.2848 11.7882V12.3499C81.171 12.3499 81.9434 12.1317 82.5397 11.6348C83.1364 11.1376 83.4889 10.418 83.6455 9.54786L83.0927 9.44835L82.5399 9.34884C82.4157 10.0386 82.1599 10.489 81.8206 10.7718C81.4809 11.0548 80.9898 11.2265 80.2848 11.2265V11.7882ZM83.0927 9.44835L83.6448 9.55186L84.3468 5.80803L83.7947 5.70451L83.2426 5.601L82.5406 9.34483L83.0927 9.44835ZM83.7947 5.70451V6.26622H87.6321V5.70451V5.14281H83.7947V5.70451ZM87.6321 5.70451H87.0704V11.7882H87.6321H88.1938V5.70451H87.6321ZM87.6321 11.7882V12.3499H96.8045V11.7882V11.2265H87.6321V11.7882ZM96.8045 11.7882H96.2428V16.0001H96.8045H97.3662V11.7882H96.8045ZM96.8045 16.0001V15.4383H87.6321V16.0001V16.5618H96.8045V16.0001ZM87.6321 16.0001H87.0704V27.3251H87.6321H88.1938V16.0001H87.6321ZM87.6321 27.3251H87.0704C87.0704 28.5978 87.3435 29.65 88.0427 30.3081L88.4277 29.899L88.8126 29.49C88.4511 29.1497 88.1938 28.486 88.1938 27.3251H87.6321ZM88.4277 29.899L88.0681 30.3305C88.786 30.9288 89.9063 31.1627 91.2823 31.1627V30.601V30.0393C89.9753 30.0393 89.1925 29.8052 88.7873 29.4675L88.4277 29.899ZM91.2823 30.601V31.1627H96.7109V30.601V30.0393H91.2823V30.601ZM96.7109 30.601H96.1492V35H96.7109H97.2726V30.601H96.7109ZM96.7109 35V34.4383H90.1124V35V35.5617H96.7109V35ZM105.491 34.064L105.212 34.5517L105.491 34.064ZM101.372 29.8522L100.879 30.12L100.881 30.1236L101.372 29.8522ZM101.372 16.9828L101.864 17.2542L101.866 17.2506L101.372 16.9828ZM105.491 12.7242L105.769 13.2119L105.491 12.7242ZM117.424 12.7242L117.142 13.2097L117.145 13.2119L117.424 12.7242ZM121.496 16.9828L120.998 17.2441L121.004 17.2542L121.496 16.9828ZM121.496 29.8522L121.987 30.1236L121.989 30.12L121.496 29.8522ZM117.377 34.064L117.099 33.5763L117.095 33.5785L117.377 34.064ZM114.71 30.0394L114.446 29.5434L114.71 30.0394ZM117.097 27.6059L116.605 27.3331L116.603 27.3379L117.097 27.6059ZM117.097 19.1823L116.603 19.4504L116.609 19.461L117.097 19.1823ZM114.71 16.7488L114.44 17.2414L114.446 17.2449L114.71 16.7488ZM108.205 16.7488L107.941 16.2528L108.205 16.7488ZM105.771 19.1823L105.284 18.9036L105.278 18.9143L105.771 19.1823ZM106.801 29.0567L106.414 29.4638L106.424 29.4732L106.801 29.0567ZM111.434 35.5616V34.9999C109.306 34.9999 107.423 34.5214 105.769 33.5763L105.491 34.064L105.212 34.5517C107.052 35.6034 109.131 36.1233 111.434 36.1233V35.5616ZM105.491 34.064L105.769 33.5763C104.114 32.6306 102.814 31.3027 101.864 29.5809L101.372 29.8522L100.881 30.1236C101.927 32.0208 103.373 33.5008 105.212 34.5517L105.491 34.064ZM101.372 29.8522L101.866 29.5844C100.92 27.8394 100.437 25.7819 100.437 23.3941H99.8749H99.3132C99.3132 25.9358 99.8284 28.1837 100.879 30.12L101.372 29.8522ZM99.8749 23.3941H100.437C100.437 21.0061 100.92 18.9659 101.864 17.2542L101.372 16.9828L100.881 16.7115C99.8283 18.6187 99.3132 20.8528 99.3132 23.3941H99.8749ZM101.372 16.9828L101.866 17.2506C102.817 15.4979 104.117 14.1562 105.769 13.2119L105.491 12.7242L105.212 12.2365C103.37 13.2889 101.925 14.7863 100.879 16.715L101.372 16.9828ZM105.491 12.7242L105.769 13.2119C107.422 12.2675 109.321 11.7884 111.481 11.7884V11.2267V10.665C109.148 10.665 107.053 11.1842 105.212 12.2365L105.491 12.7242ZM111.481 11.2267V11.7884C113.641 11.7884 115.522 12.2675 117.142 13.2097L117.424 12.7242L117.707 12.2387C115.894 11.1841 113.813 10.665 111.481 10.665V11.2267ZM117.424 12.7242L117.145 13.2119C118.796 14.1553 120.079 15.4948 120.998 17.2441L121.496 16.9828L121.993 16.7215C120.978 14.7894 119.546 13.2898 117.703 12.2365L117.424 12.7242ZM121.496 16.9828L121.004 17.2542C121.948 18.9659 122.431 21.0061 122.431 23.3941H122.993H123.555C123.555 20.8528 123.04 18.6187 121.987 16.7115L121.496 16.9828ZM122.993 23.3941H122.431C122.431 25.7819 121.948 27.8394 121.002 29.5844L121.496 29.8522L121.989 30.12C123.039 28.1837 123.555 25.9358 123.555 23.3941H122.993ZM121.496 29.8522L121.004 29.5809C120.054 31.3027 118.754 32.6306 117.099 33.5763L117.377 34.064L117.656 34.5517C119.495 33.5008 120.941 32.0208 121.987 30.1236L121.496 29.8522ZM117.377 34.064L117.095 33.5785C115.475 34.5207 113.594 34.9999 111.434 34.9999V35.5616V36.1233C113.766 36.1233 115.847 35.6041 117.66 34.5495L117.377 34.064ZM111.434 30.835V31.3967C112.707 31.3967 113.89 31.1111 114.973 30.5355L114.71 30.0394L114.446 29.5434C113.533 30.0285 112.532 30.2733 111.434 30.2733V30.835ZM114.71 30.0394L114.973 30.5355C116.079 29.9482 116.95 29.0528 117.59 27.8739L117.097 27.6059L116.603 27.3379C116.057 28.3429 115.338 29.0699 114.446 29.5434L114.71 30.0394ZM117.097 27.6059L117.588 27.8787C118.27 26.6501 118.594 25.1455 118.594 23.3941H118.032H117.471C117.471 25.0122 117.171 26.3154 116.605 27.3331L117.097 27.6059ZM118.032 23.3941H118.594C118.594 21.6146 118.271 20.1058 117.584 18.9036L117.097 19.1823L116.609 19.461C117.17 20.4427 117.471 21.7418 117.471 23.3941H118.032ZM117.097 19.1823L117.59 18.9143C116.95 17.7354 116.079 16.84 114.973 16.2528L114.71 16.7488L114.446 17.2449C115.338 17.7184 116.057 18.4453 116.603 19.4503L117.097 19.1823ZM114.71 16.7488L114.98 16.2563C113.924 15.6772 112.753 15.3916 111.481 15.3916V15.9533V16.515C112.579 16.515 113.561 16.7597 114.44 17.2413L114.71 16.7488ZM111.481 15.9533V15.3916C110.208 15.3916 109.025 15.6772 107.941 16.2528L108.205 16.7488L108.468 17.2449C109.382 16.7597 110.382 16.515 111.481 16.515V15.9533ZM108.205 16.7488L107.941 16.2528C106.839 16.8384 105.954 17.7302 105.284 18.9036L105.771 19.1823L106.259 19.461C106.837 18.4505 107.574 17.7199 108.468 17.2449L108.205 16.7488ZM105.771 19.1823L105.278 18.9143C104.627 20.1139 104.321 21.6185 104.321 23.3941H104.882H105.444C105.444 21.7379 105.731 20.4346 106.265 19.4503L105.771 19.1823ZM104.882 23.3941H104.321C104.321 26.0365 104.981 28.1009 106.414 29.4637L106.801 29.0567L107.188 28.6497C106.062 27.579 105.444 25.8683 105.444 23.3941H104.882ZM106.801 29.0567L106.424 29.4732C107.838 30.7528 109.517 31.3967 111.434 31.3967V30.835V30.2733C109.794 30.2733 108.384 29.7316 107.178 28.6401L106.801 29.0567ZM124.847 35H124.285V35.5617H124.847V35ZM124.847 30.6946V30.1329H124.285V30.6946H124.847ZM130.509 30.6946V31.2563H131.071V30.6946H130.509ZM125.315 16.0936H124.753V16.6554H125.315V16.0936ZM125.315 11.7882V11.2265H124.753V11.7882H125.315ZM134.019 12.9114L133.638 13.3242L133.647 13.3321L134.019 12.9114ZM135.236 16.5148H134.674V17.0765H135.236V16.5148ZM135.47 16.5148V17.0765H135.932L136.021 16.6231L135.47 16.5148ZM137.669 12.5838L138.014 13.0272L138.016 13.0259L137.669 12.5838ZM146.28 11.2267H146.842V10.665H146.28V11.2267ZM146.28 16.468V17.0297H146.842V16.468H146.28ZM136.967 18.3867L136.525 18.0411L136.967 18.3867ZM135.47 30.6946H134.908V31.2563H135.47V30.6946ZM142.677 30.6946H143.238V30.1329H142.677V30.6946ZM142.677 35V35.5617H143.238V35H142.677ZM124.847 35H125.408V30.6946H124.847H124.285V35H124.847ZM124.847 30.6946V31.2563H130.509V30.6946V30.1329H124.847V30.6946ZM130.509 30.6946H131.071V17.638H130.509H129.948V30.6946H130.509ZM130.509 17.638H131.071C131.071 17.0409 130.926 16.4891 130.538 16.0887C130.147 15.6851 129.602 15.5319 129.012 15.5319V16.0936V16.6554C129.42 16.6554 129.624 16.7596 129.732 16.8708C129.843 16.9851 129.948 17.2055 129.948 17.638H130.509ZM129.012 16.0936V15.5319H125.315V16.0936V16.6554H129.012V16.0936ZM125.315 16.0936H125.876V11.7882H125.315H124.753V16.0936H125.315ZM125.315 11.7882V12.3499H130.884V11.7882V11.2265H125.315V11.7882ZM130.884 11.7882V12.3499C132.045 12.3499 132.947 12.6862 133.638 13.3241L134.019 12.9114L134.4 12.4986C133.469 11.639 132.28 11.2265 130.884 11.2265V11.7882ZM134.019 12.9114L133.647 13.3321C134.312 13.9209 134.674 14.767 134.674 15.9533H135.236H135.798C135.798 14.5188 135.348 13.337 134.391 12.4907L134.019 12.9114ZM135.236 15.9533H134.674V16.5148H135.236H135.798V15.9533H135.236ZM135.236 16.5148V17.0765H135.47V16.5148V15.9531H135.236V16.5148ZM135.47 16.5148L136.021 16.6231C136.345 14.9743 137.023 13.7982 138.014 13.0272L137.669 12.5838L137.324 12.1404C136.07 13.1165 135.281 14.5611 134.919 16.4066L135.47 16.5148ZM137.669 12.5838L138.016 13.0259C139.033 12.2285 140.56 11.7884 142.677 11.7884V11.2267V10.665C140.426 10.665 138.614 11.1296 137.323 12.1417L137.669 12.5838ZM142.677 11.2267V11.7884H146.28V11.2267V10.665H142.677V11.2267ZM146.28 11.2267H145.718V16.468H146.28H146.842V11.2267H146.28ZM146.28 16.468V15.9063H141.226V16.468V17.0297H146.28V16.468ZM141.226 16.468V15.9063C139.239 15.9063 137.645 16.6061 136.525 18.0411L136.967 18.3867L137.41 18.7323C138.287 17.6091 139.532 17.0297 141.226 17.0297V16.468ZM136.967 18.3867L136.525 18.0411C135.442 19.4286 134.908 21.0821 134.908 22.9729H135.47H136.031C136.031 21.3071 136.496 19.9032 137.41 18.7323L136.967 18.3867ZM135.47 22.9729H134.908V30.6946H135.47H136.031V22.9729H135.47ZM135.47 30.6946V31.2563H142.677V30.6946V30.1329H135.47V30.6946ZM142.677 30.6946H142.115V35H142.677H143.238V30.6946H142.677ZM142.677 35V34.4383H124.847V35V35.5617H142.677V35Z" fill="white"/>
</svg>
