<svg width="190" height="152" viewBox="0 0 190 152" fill="none" xmlns="http://www.w3.org/2000/svg">
<path d="M94.5164 5.19867L94.5164 151" stroke="white" stroke-width="1.69663" stroke-linecap="round"/>
<path d="M94.5164 5.19869L156.617 113.971" stroke="white" stroke-width="1.69663" stroke-linecap="round"/>
<path d="M94.3234 5.19867L31.2585 115.15" stroke="white" stroke-width="1.69663" stroke-linecap="round"/>
<path d="M157.388 41.4561L31.4534 115.075" stroke="white" stroke-width="1.69663" stroke-linecap="round"/>
<path d="M156.634 113.942L31.6244 41.7678" stroke="white" stroke-width="1.69663" stroke-linecap="round"/>
<path d="M94.3235 151L31.6242 41.7677" stroke="white" stroke-width="1.69663" stroke-linecap="round"/>
<path d="M94.5164 151L157.388 41.4561" stroke="white" stroke-width="1.69663" stroke-linecap="round"/>
<path d="M31.6438 41.649L157.388 41.2633" stroke="white" stroke-width="1.69663" stroke-linecap="round"/>
<path d="M31.6445 114.357L157.389 113.971" stroke="white" stroke-width="1.69663" stroke-linecap="round"/>
<path d="M63.2212 60.1631L94.4643 114.164" stroke="white" stroke-width="1.69663" stroke-linecap="round"/>
<path d="M125.759 59.9706L94.4642 114.164" stroke="white" stroke-width="1.69663" stroke-linecap="round"/>
<path d="M125.759 96.421L94.5161 43.3848" stroke="white" stroke-width="1.69663" stroke-linecap="round"/>
<path d="M63.0803 96.2281L94.8943 41.4561" stroke="white" stroke-width="1.69663" stroke-linecap="round"/>
<path d="M63.6587 96.455L125.566 96.455" stroke="white" stroke-width="1.69663" stroke-linecap="round"/>
<path d="M63.2729 59.9706L125.566 59.9706" stroke="white" stroke-width="1.69663" stroke-linecap="round"/>
<path d="M63.2729 59.9706L125.566 59.9706" stroke="white" stroke-width="1.69663" stroke-linecap="round"/>
<path d="M79.2803 69.035L94.5161 96.421" stroke="white" stroke-width="1.69663" stroke-linecap="round"/>
<path d="M79.2803 69.035L109.559 69.035" stroke="white" stroke-width="1.69663" stroke-linecap="round"/>
<path d="M109.752 69.2278L94.5162 96.6138" stroke="white" stroke-width="1.69663" stroke-linecap="round"/>
</svg>
