<svg width="305" height="321" viewBox="0 0 305 321" fill="none" xmlns="http://www.w3.org/2000/svg">
<path d="M46.528 140.973C46.528 143.349 46.1027 145.344 45.252 146.957C44.4013 148.541 43.2427 149.744 41.776 150.565C40.28 151.357 38.608 151.739 36.76 151.709V149.641C38.1973 149.641 39.532 149.348 40.764 148.761C41.9667 148.145 42.9347 147.207 43.668 145.945C44.4013 144.655 44.768 143.012 44.768 141.017C44.768 139.199 44.4747 137.717 43.888 136.573C43.3013 135.4 42.5093 134.52 41.512 133.933C40.5147 133.347 39.4 133.053 38.168 133.053C36.672 133.053 35.484 133.391 34.604 134.065C33.6947 134.711 32.9613 135.576 32.404 136.661C31.8467 137.717 31.3773 138.905 30.996 140.225C30.5853 141.516 30.1453 142.792 29.676 144.053C28.9427 146.107 28.0187 147.676 26.904 148.761C25.76 149.847 24.2493 150.389 22.372 150.389C20.9347 150.389 19.644 150.052 18.5 149.377C17.3267 148.673 16.4027 147.647 15.728 146.297C15.024 144.948 14.672 143.305 14.672 141.369C14.672 139.58 14.9947 137.996 15.64 136.617C16.2853 135.239 17.224 134.153 18.456 133.361C19.6587 132.569 21.1547 132.173 22.944 132.173V134.285C21.5653 134.285 20.392 134.579 19.424 135.165C18.456 135.723 17.7227 136.544 17.224 137.629C16.696 138.685 16.432 139.947 16.432 141.413C16.432 142.968 16.696 144.259 17.224 145.285C17.7227 146.312 18.412 147.075 19.292 147.573C20.1427 148.072 21.1253 148.321 22.24 148.321C23.5013 148.321 24.5133 148.013 25.276 147.397C26.0387 146.781 26.6693 145.96 27.168 144.933C27.6373 143.877 28.0773 142.704 28.488 141.413C28.8987 140.123 29.368 138.803 29.896 137.453C30.3947 136.221 30.9813 135.121 31.656 134.153C32.3307 133.156 33.1813 132.379 34.208 131.821C35.2347 131.235 36.5253 130.941 38.08 130.941C39.6053 130.941 41.0133 131.308 42.304 132.041C43.5653 132.775 44.592 133.889 45.384 135.385C46.1467 136.852 46.528 138.715 46.528 140.973Z" fill="white"/>
<path d="M57.9918 132.392L26.7017 126.414L27.032 124.685L32.5188 125.51C31.5065 124.868 30.6308 124.059 29.8918 123.082C29.1527 122.104 28.6196 120.987 28.2923 119.73C27.9706 118.444 27.9501 117.066 28.2308 115.597C28.6326 113.494 29.4836 111.775 30.7838 110.44C32.0607 109.072 33.6433 108.135 35.5316 107.629C37.3912 107.119 39.4302 107.075 41.6488 107.499C43.8385 107.917 45.7179 108.709 47.287 109.875C48.8273 111.036 49.9386 112.487 50.621 114.23C51.3089 115.945 51.4492 117.868 51.0418 120C50.6455 122.074 49.7684 123.773 48.4106 125.097C47.0529 126.42 45.3571 127.246 43.3234 127.574L58.3634 130.447L57.9918 132.392ZM49.2534 119.748C49.5671 118.105 49.4534 116.59 48.9121 115.203C48.3764 113.787 47.457 112.581 46.1541 111.585C44.8511 110.59 43.2055 109.902 41.2175 109.522C39.2583 109.148 37.4895 109.183 35.9113 109.628C34.3331 110.073 33.0339 110.855 32.0138 111.975C30.9703 113.059 30.2917 114.423 29.978 116.065C29.6642 117.707 29.804 119.242 30.3974 120.67C30.9619 122.092 31.9101 123.303 33.2419 124.304C34.5504 125.271 36.1411 125.933 38.0138 126.291C39.9155 126.654 41.667 126.63 43.2686 126.22C44.8468 125.775 46.1604 124.995 47.2093 123.882C48.2583 122.768 48.9396 121.39 49.2534 119.748Z" fill="white"/>
<path d="M57.7076 104.687C56.9717 106.635 55.8815 108.152 54.4369 109.237C53.0027 110.294 51.3173 110.896 49.3806 111.042C47.4439 111.189 45.3642 110.842 43.1415 110.003C40.8913 109.153 39.1208 108.029 37.8298 106.632C36.5492 105.208 35.7531 103.621 35.4414 101.873C35.1126 100.087 35.3007 98.2611 36.0055 96.3951C36.7622 94.3919 37.8473 92.889 39.2607 91.8865C40.6467 90.8736 42.1965 90.2988 43.91 90.1621C45.6235 90.0255 47.3446 90.2837 49.0734 90.9367C49.3478 91.0403 49.6085 91.1388 49.8555 91.2321C50.1025 91.3254 50.3854 91.4479 50.7043 91.5998L44.1741 108.888L42.5688 108.281L48.4305 92.7633C45.7583 91.7853 43.4908 91.7284 41.628 92.5925C39.7651 93.4567 38.4294 94.9589 37.6209 97.0993C37.1234 98.4165 36.9588 99.7654 37.1271 101.146C37.2955 102.526 37.8709 103.826 38.8533 105.043C39.8461 106.234 41.3166 107.197 43.2649 107.933L44.0058 108.213C46.0913 109 47.9548 109.297 49.5964 109.101C51.2105 108.896 52.5645 108.341 53.6584 107.437C54.7524 106.534 55.5533 105.409 56.0612 104.065C56.7142 102.336 56.8553 100.759 56.4845 99.3332C56.0863 97.8972 55.2447 96.6386 53.9598 95.5575L54.6595 93.7052C55.7321 94.518 56.6036 95.49 57.2738 96.6211C57.9543 97.7248 58.3514 98.9566 58.4648 100.316C58.5509 101.666 58.2985 103.123 57.7076 104.687Z" fill="white"/>
<path d="M65.2803 92.6072C64.4536 94.0605 63.477 95.1248 62.3504 95.8002C61.2239 96.4755 60.0693 96.8143 58.8869 96.8166C57.6789 96.8045 56.5522 96.5011 55.5069 95.9064C54.1045 95.1088 53.1384 94.1374 52.6086 92.9924C52.0788 91.8473 51.9235 90.5778 52.1427 89.1839C52.3509 87.75 52.8901 86.2681 53.7603 84.7383L57.067 78.9249C55.6902 78.1418 54.4013 77.6786 53.2003 77.5354C52.0139 77.3668 50.9209 77.5381 49.9214 78.0494C48.9218 78.5608 48.045 79.4794 47.2908 80.8052C46.4061 82.3606 46.0434 83.8585 46.2027 85.2989C46.3765 86.7139 47.1358 87.9895 48.4806 89.1256L47.4798 90.8849C46.23 89.9378 45.3747 88.8607 44.9139 87.6537C44.4421 86.4066 44.294 85.1244 44.4697 83.807C44.6199 82.475 45.0503 81.1844 45.761 79.935C46.7617 78.1757 47.9236 76.9637 49.2466 76.2989C50.5442 75.6196 51.9299 75.3786 53.4039 75.5758C54.8668 75.733 56.3504 76.2394 57.8547 77.0951L69.6726 83.8173L68.8025 85.3472L64.8309 83.3412C65.1228 83.7772 65.4222 84.3187 65.7291 84.9657C66.036 85.6128 66.2539 86.3273 66.3828 87.1093C66.5117 87.8913 66.4988 88.7445 66.3442 89.6689C66.2295 90.5824 65.8749 91.5618 65.2803 92.6072ZM63.821 91.524C64.4446 90.4276 64.7845 89.3555 64.8407 88.3075C64.8713 87.2451 64.702 86.2376 64.3326 85.285C63.9378 84.318 63.4121 83.4622 62.7558 82.7176C62.0994 81.9731 61.376 81.376 60.5856 80.9264L58.5586 79.7734L55.3171 85.472C54.4614 86.9763 53.991 88.278 53.9059 89.3769C53.7952 90.4614 53.9753 91.3906 54.4462 92.1646C54.9316 92.9132 55.6205 93.5413 56.5129 94.0489C57.3288 94.513 58.1897 94.7496 59.0957 94.7587C59.9761 94.7534 60.8379 94.4842 61.6809 93.9514C62.4985 93.404 63.2118 92.5949 63.821 91.524Z" fill="white"/>
<path d="M79.3443 74.4989L62.7445 75.8372L61.4576 61.3606L63.0761 59.331L64.4057 74.742L63.4425 73.9739L81.0177 72.4004L79.3443 74.4989ZM71.2515 84.6472L46.4828 64.8953L47.7173 63.3473L72.486 83.0991L71.2515 84.6472Z" fill="white"/>
<path d="M84.8451 71.4929C84.45 71.8431 84.0039 72.0033 83.507 71.9733C82.9907 71.9214 82.5574 71.6979 82.2072 71.3028C81.8764 70.9296 81.726 70.4946 81.7559 69.9977C81.7664 69.4788 81.9692 69.0443 82.3644 68.6941C82.7595 68.3438 83.2152 68.1947 83.7316 68.2466C84.2285 68.2765 84.6521 68.489 85.0023 68.8842C85.333 69.2574 85.4932 69.7034 85.4827 70.2222C85.4528 70.7191 85.2402 71.1427 84.8451 71.4929Z" fill="white"/>
<path d="M102.089 59.624L86.6168 32.9922L94.3781 28.4832C96.4325 27.2897 98.2981 26.6468 99.9748 26.5548C101.662 26.4226 103.134 26.7377 104.391 27.5001C105.648 28.2625 106.697 29.3665 107.537 30.8122C108.377 32.2579 108.824 33.7283 108.878 35.2233C108.918 36.693 108.475 38.1206 107.55 39.5062C106.625 40.8918 105.122 42.1887 103.042 43.397L96.9933 46.9114L103.801 58.6294L102.089 59.624ZM96.1312 45.4276L102.219 41.8912C104.577 40.5208 106.033 38.9968 106.585 37.3191C107.162 35.6267 106.883 33.8041 105.749 31.8511C104.614 29.8981 103.169 28.7532 101.413 28.4165C99.6818 28.065 97.637 28.5745 95.2781 29.9449L89.1909 33.4814L96.1312 45.4276Z" fill="white"/>
<path d="M120.393 51.8628L113.049 30.938L114.71 30.3552L116.403 34.5171C116.485 33.2448 116.779 32.1316 117.283 31.1774C117.815 30.2134 118.549 29.3808 119.484 28.6795C120.419 27.9783 121.551 27.3945 122.88 26.9282L123.55 28.838L122.803 29.1003C121.972 29.3917 121.153 29.8036 120.345 30.3358C119.565 30.8584 118.903 31.5414 118.36 32.385C117.834 33.1911 117.535 34.1977 117.461 35.4049C117.387 36.6121 117.637 38.0322 118.21 39.6653L122.261 51.2071L120.393 51.8628Z" fill="white"/>
<path d="M142.687 47.1207C140.709 47.5502 138.832 47.4776 137.057 46.9027C135.309 46.3216 133.794 45.285 132.509 43.793C131.247 42.2661 130.367 40.356 129.869 38.0628C129.352 35.6836 129.369 33.5488 129.919 31.6583C130.469 29.7678 131.432 28.1928 132.81 26.9331C134.187 25.6734 135.865 24.8288 137.843 24.3992C139.849 23.9635 141.726 24.0361 143.473 24.6172C145.249 25.1921 146.765 26.2287 148.021 27.7269C149.305 29.219 150.206 31.1546 150.723 33.5338C151.221 35.827 151.198 37.9331 150.654 39.8523C150.104 41.7427 149.14 43.3178 147.763 44.5775C146.386 45.8372 144.694 46.6849 142.687 47.1207ZM142.314 45.4008C143.804 45.077 145.102 44.4199 146.208 43.4294C147.342 42.4326 148.155 41.1304 148.646 39.5228C149.138 37.9153 149.153 36.0509 148.692 33.9297C148.232 31.8085 147.444 30.1184 146.331 28.8594C145.245 27.5943 143.983 26.7578 142.544 26.35C141.127 25.9072 139.687 25.8446 138.225 26.1621C136.763 26.4796 135.465 27.1368 134.331 28.1335C133.197 29.1303 132.384 30.4325 131.893 32.0401C131.424 33.6127 131.42 35.4597 131.88 37.5809C132.341 39.7021 133.114 41.3953 134.199 42.6605C135.313 43.9194 136.578 44.7702 137.995 45.213C139.412 45.6557 140.852 45.7183 142.314 45.4008Z" fill="white"/>
<path d="M158.239 46.5533L148.659 24.7557L150.813 24.6663L159.296 44.4396L166.112 24.0315L168.222 23.944L160.481 46.4602L158.239 46.5533Z" fill="white"/>
<path d="M178.823 49.9046C176.758 49.6327 175.033 48.9174 173.647 47.7585C172.29 46.6035 171.32 45.0999 170.735 43.2477C170.15 41.3956 170.013 39.2917 170.323 36.936C170.637 34.5512 171.327 32.571 172.393 30.9953C173.487 29.4234 174.85 28.2863 176.481 27.5838C178.145 26.8562 179.966 26.6225 181.943 26.8829C184.066 27.1625 185.777 27.876 187.076 29.0233C188.378 30.1416 189.292 31.5193 189.816 33.1564C190.34 34.7935 190.481 36.5281 190.24 38.3603C190.202 38.6511 190.165 38.9274 190.131 39.1892C190.096 39.4509 190.042 39.7544 189.967 40.0995L171.645 37.6869L171.869 35.9856L188.315 38.1512C188.657 35.3264 188.195 33.1057 186.929 31.4892C185.662 29.8727 183.895 28.9151 181.626 28.6164C180.23 28.4326 178.88 28.5802 177.574 29.0591C176.268 29.5381 175.135 30.3948 174.173 31.6292C173.241 32.8674 172.639 34.5189 172.367 36.5838L172.264 37.369C171.973 39.5792 172.109 41.4612 172.674 43.0149C173.242 44.5395 174.091 45.7312 175.221 46.59C176.351 47.4488 177.628 47.972 179.053 48.1597C180.885 48.401 182.453 48.1784 183.756 47.492C185.064 46.7766 186.097 45.67 186.856 44.1723L188.819 44.4308C188.273 45.6606 187.525 46.7309 186.577 47.6415C185.658 48.556 184.549 49.2237 183.251 49.6445C181.957 50.0362 180.481 50.1229 178.823 49.9046Z" fill="white"/>
<path d="M186.491 52.4818C185.985 52.3324 185.612 52.0391 185.374 51.6018C185.145 51.1365 185.105 50.6506 185.254 50.1442C185.395 49.6659 185.684 49.3078 186.122 49.0698C186.567 48.8036 187.043 48.7453 187.549 48.8947C188.056 49.0442 188.424 49.3516 188.654 49.8169C188.892 50.2542 188.936 50.726 188.786 51.2324C188.645 51.7107 188.352 52.0829 187.906 52.349C187.469 52.587 186.997 52.6313 186.491 52.4818Z" fill="white"/>
<path d="M205.695 60.8134L220.078 33.5776L236.069 42.0221L235.288 43.5006L221.048 35.9807L215.048 47.3419L228.121 54.2454L227.32 55.7628L214.247 48.8593L208.227 60.2594L222.467 67.7793L221.687 69.2578L205.695 60.8134Z" fill="white"/>
<path d="M228.459 77.6227L235.903 55.0063L237.565 56.3797L230.658 76.7572L249.368 66.1332L250.997 67.4785L230.189 79.0521L228.459 77.6227Z" fill="white"/>
<path d="M241.845 94.2417C240.529 92.7039 239.703 91.0169 239.367 89.1809C239.05 87.3671 239.244 85.541 239.949 83.7025C240.695 81.8673 241.959 80.1868 243.742 78.6611C245.592 77.0781 247.48 76.0805 249.405 75.6685C251.33 75.2564 253.174 75.3581 254.936 75.9736C256.698 76.589 258.237 77.6657 259.553 79.2034C260.888 80.7635 261.714 82.4504 262.031 84.2642C262.366 86.1003 262.172 87.9264 261.449 89.7426C260.744 91.581 259.467 93.2917 257.617 94.8747C255.834 96.4005 253.969 97.3789 252.021 97.8101C250.096 98.2221 248.253 98.1204 246.49 97.505C244.728 96.8895 243.18 95.8017 241.845 94.2417ZM243.182 93.0973C244.174 94.2563 245.368 95.0876 246.764 95.5914C248.179 96.1175 249.711 96.2158 251.36 95.8862C253.008 95.5567 254.657 94.6862 256.306 93.2749C257.955 91.8635 259.07 90.369 259.65 88.7914C260.25 87.2361 260.388 85.7281 260.064 84.2674C259.782 82.81 259.155 81.513 258.182 80.3764C257.21 79.2397 256.016 78.4084 254.6 77.8823C253.185 77.3562 251.653 77.2579 250.005 77.5875C248.398 77.9203 246.769 78.7923 245.12 80.2037C243.471 81.615 242.347 83.0983 241.747 84.6537C241.167 86.2313 241.018 87.7489 241.3 89.2063C241.582 90.6637 242.209 91.9607 243.182 93.0973Z" fill="white"/>
<path d="M246.283 101.875L273.529 85.7116L274.539 87.4145L247.293 103.578L246.283 101.875Z" fill="white"/>
<path d="M254.099 118.335L270.679 101.247L271.574 103.209L256.455 118.518L277.927 117.14L278.803 119.062L255.03 120.377L254.099 118.335Z" fill="white"/>
<path d="M258.752 138.665C258.225 136.65 258.238 134.782 258.789 133.061C259.348 131.369 260.375 129.904 261.87 128.664C263.365 127.425 265.262 126.505 267.561 125.905C269.888 125.297 271.983 125.189 273.844 125.582C275.712 126.004 277.279 126.838 278.544 128.084C279.845 129.351 280.748 130.949 281.252 132.879C281.793 134.951 281.777 136.805 281.204 138.44C280.659 140.068 279.727 141.433 278.408 142.535C277.089 143.638 275.535 144.422 273.747 144.889C273.464 144.964 273.194 145.034 272.939 145.101C272.683 145.167 272.381 145.231 272.033 145.292L267.364 127.411L269.024 126.978L273.216 143.027C275.961 142.28 277.844 141.015 278.864 139.233C279.884 137.451 280.105 135.453 279.527 133.239C279.171 131.877 278.525 130.681 277.59 129.652C276.654 128.623 275.433 127.896 273.928 127.471C272.429 127.074 270.673 127.138 268.658 127.665L267.891 127.865C265.734 128.428 264.043 129.264 262.816 130.373C261.618 131.474 260.834 132.709 260.465 134.079C260.095 135.449 260.091 136.829 260.455 138.22C260.922 140.008 261.719 141.376 262.846 142.325C264.001 143.266 265.415 143.806 267.089 143.945L267.589 145.861C266.244 145.818 264.971 145.529 263.77 144.994C262.577 144.487 261.54 143.712 260.661 142.668C259.811 141.617 259.174 140.282 258.752 138.665Z" fill="white"/>
<path d="M259.254 146.739C259.202 146.213 259.333 145.758 259.649 145.373C259.993 144.985 260.428 144.764 260.953 144.712C261.45 144.662 261.89 144.795 262.275 145.111C262.69 145.423 262.923 145.842 262.976 146.367C263.028 146.893 262.882 147.349 262.538 147.738C262.222 148.123 261.802 148.342 261.277 148.394C260.78 148.444 260.325 148.312 259.911 148C259.525 147.684 259.307 147.264 259.254 146.739Z" fill="white"/>
<path d="M258.28 180.716C258.28 178.34 258.706 176.345 259.556 174.732C260.407 173.148 261.566 171.945 263.032 171.124C264.528 170.332 266.2 169.951 268.048 169.98L268.048 172.048C266.611 172.048 265.276 172.341 264.044 172.928C262.842 173.544 261.874 174.483 261.14 175.744C260.407 177.035 260.04 178.677 260.04 180.672C260.04 182.491 260.334 183.972 260.92 185.116C261.507 186.289 262.299 187.169 263.296 187.756C264.294 188.343 265.408 188.636 266.64 188.636C268.136 188.636 269.324 188.299 270.204 187.624C271.114 186.979 271.847 186.113 272.404 185.028C272.962 183.972 273.431 182.784 273.812 181.464C274.223 180.173 274.663 178.897 275.132 177.636C275.866 175.583 276.79 174.013 277.904 172.928C279.048 171.843 280.559 171.3 282.436 171.3C283.874 171.3 285.164 171.637 286.308 172.312C287.482 173.016 288.406 174.043 289.08 175.392C289.784 176.741 290.136 178.384 290.136 180.32C290.136 182.109 289.814 183.693 289.168 185.072C288.523 186.451 287.584 187.536 286.352 188.328C285.15 189.12 283.654 189.516 281.864 189.516L281.864 187.404C283.243 187.404 284.416 187.111 285.384 186.524C286.352 185.967 287.086 185.145 287.584 184.06C288.112 183.004 288.376 181.743 288.376 180.276C288.376 178.721 288.112 177.431 287.584 176.404C287.086 175.377 286.396 174.615 285.516 174.116C284.666 173.617 283.683 173.368 282.568 173.368C281.307 173.368 280.295 173.676 279.532 174.292C278.77 174.908 278.139 175.729 277.64 176.756C277.171 177.812 276.731 178.985 276.32 180.276C275.91 181.567 275.44 182.887 274.912 184.236C274.414 185.468 273.827 186.568 273.152 187.536C272.478 188.533 271.627 189.311 270.6 189.868C269.574 190.455 268.283 190.748 266.728 190.748C265.203 190.748 263.795 190.381 262.504 189.648C261.243 188.915 260.216 187.8 259.424 186.304C258.662 184.837 258.28 182.975 258.28 180.716Z" fill="white"/>
<path d="M246.817 189.297L278.107 195.275L277.776 197.004L272.29 196.18C273.302 196.821 274.178 197.63 274.917 198.608C275.656 199.585 276.189 200.702 276.516 201.959C276.838 203.245 276.858 204.623 276.578 206.092C276.176 208.196 275.325 209.914 274.025 211.249C272.748 212.617 271.165 213.554 269.277 214.06C267.417 214.571 265.378 214.614 263.16 214.19C260.97 213.772 259.09 212.98 257.521 211.814C255.981 210.654 254.87 209.202 254.187 207.459C253.499 205.745 253.359 203.822 253.767 201.689C254.163 199.615 255.04 197.916 256.398 196.593C257.755 195.269 259.451 194.443 261.485 194.115L246.445 191.242L246.817 189.297ZM255.555 201.942C255.241 203.584 255.355 205.099 255.896 206.486C256.432 207.903 257.351 209.109 258.654 210.104C259.957 211.1 261.603 211.787 263.591 212.167C265.55 212.541 267.319 212.506 268.897 212.061C270.475 211.616 271.774 210.834 272.795 209.715C273.838 208.63 274.517 207.266 274.83 205.624C275.144 203.982 275.004 202.447 274.411 201.02C273.846 199.598 272.898 198.386 271.566 197.385C270.258 196.419 268.667 195.756 266.794 195.398C264.893 195.035 263.141 195.059 261.54 195.47C259.962 195.915 258.648 196.694 257.599 197.808C256.55 198.921 255.869 200.299 255.555 201.942Z" fill="white"/>
<path d="M247.101 217.002C247.837 215.054 248.927 213.538 250.371 212.453C251.806 211.395 253.491 210.793 255.428 210.647C257.364 210.5 259.444 210.847 261.667 211.687C263.917 212.537 265.688 213.66 266.979 215.057C268.259 216.481 269.055 218.068 269.367 219.816C269.696 221.602 269.508 223.428 268.803 225.294C268.046 227.297 266.961 228.8 265.548 229.803C264.162 230.816 262.612 231.39 260.898 231.527C259.185 231.664 257.464 231.406 255.735 230.753C255.461 230.649 255.2 230.55 254.953 230.457C254.706 230.364 254.423 230.241 254.104 230.089L260.634 212.802L262.24 213.408L256.378 228.926C259.05 229.904 261.318 229.961 263.18 229.097C265.043 228.233 266.379 226.73 267.187 224.59C267.685 223.273 267.85 221.924 267.681 220.543C267.513 219.163 266.937 217.864 265.955 216.646C264.962 215.456 263.492 214.493 261.543 213.757L260.803 213.477C258.717 212.689 256.854 212.393 255.212 212.588C253.598 212.793 252.244 213.348 251.15 214.252C250.056 215.156 249.255 216.28 248.747 217.624C248.094 219.353 247.953 220.93 248.324 222.356C248.722 223.792 249.564 225.051 250.849 226.132L250.149 227.984C249.076 227.171 248.205 226.199 247.535 225.068C246.854 223.964 246.457 222.733 246.344 221.373C246.257 220.023 246.51 218.567 247.101 217.002Z" fill="white"/>
<path d="M239.528 229.082C240.355 227.629 241.332 226.564 242.458 225.889C243.585 225.214 244.739 224.875 245.922 224.873C247.13 224.885 248.256 225.188 249.302 225.783C250.704 226.58 251.67 227.552 252.2 228.697C252.73 229.842 252.885 231.111 252.666 232.505C252.458 233.939 251.919 235.421 251.048 236.951L247.742 242.764C249.118 243.547 250.407 244.011 251.608 244.154C252.795 244.322 253.888 244.151 254.887 243.64C255.887 243.128 256.764 242.21 257.518 240.884C258.402 239.329 258.765 237.831 258.606 236.39C258.432 234.975 257.673 233.7 256.328 232.564L257.329 230.804C258.579 231.751 259.434 232.829 259.895 234.036C260.367 235.283 260.515 236.565 260.339 237.882C260.189 239.214 259.758 240.505 259.048 241.754C258.047 243.513 256.885 244.726 255.562 245.39C254.264 246.07 252.879 246.311 251.405 246.113C249.942 245.956 248.458 245.45 246.954 244.594L235.136 237.872L236.006 236.342L239.978 238.348C239.686 237.912 239.386 237.37 239.079 236.723C238.773 236.076 238.555 235.362 238.426 234.58C238.297 233.798 238.31 232.945 238.464 232.02C238.579 231.107 238.934 230.127 239.528 229.082ZM240.988 230.165C240.364 231.262 240.024 232.334 239.968 233.382C239.937 234.444 240.107 235.452 240.476 236.404C240.871 237.371 241.396 238.227 242.053 238.972C242.709 239.716 243.433 240.313 244.223 240.763L246.25 241.916L249.491 236.217C250.347 234.713 250.818 233.411 250.903 232.312C251.013 231.228 250.833 230.299 250.362 229.525C249.877 228.776 249.188 228.148 248.296 227.64C247.48 227.176 246.619 226.94 245.713 226.93C244.832 226.936 243.971 227.205 243.128 227.738C242.31 228.285 241.597 229.094 240.988 230.165Z" fill="white"/>
<path d="M225.464 247.19L242.064 245.852L243.351 260.329L241.732 262.358L240.403 246.947L241.366 247.715L223.791 249.289L225.464 247.19ZM233.557 237.042L258.326 256.794L257.091 258.342L232.322 238.59L233.557 237.042Z" fill="white"/>
<path d="M219.963 250.196C220.358 249.846 220.804 249.686 221.301 249.716C221.818 249.768 222.251 249.991 222.601 250.386C222.932 250.76 223.082 251.195 223.052 251.692C223.042 252.21 222.839 252.645 222.444 252.995C222.049 253.345 221.593 253.495 221.077 253.443C220.58 253.413 220.156 253.2 219.806 252.805C219.475 252.432 219.315 251.986 219.326 251.467C219.356 250.97 219.568 250.547 219.963 250.196Z" fill="white"/>
<path d="M202.719 262.065L218.192 288.697L210.43 293.206C208.376 294.4 206.51 295.042 204.834 295.134C203.146 295.267 201.674 294.951 200.417 294.189C199.16 293.427 198.111 292.323 197.272 290.877C196.432 289.431 195.984 287.961 195.93 286.466C195.89 284.996 196.333 283.569 197.258 282.183C198.184 280.797 199.686 279.501 201.766 278.292L207.815 274.778L201.007 263.06L202.719 262.065ZM208.677 276.262L202.59 279.798C200.231 281.168 198.776 282.692 198.224 284.37C197.646 286.062 197.925 287.885 199.06 289.838C200.194 291.791 201.64 292.936 203.396 293.273C205.127 293.624 207.171 293.115 209.53 291.744L215.617 288.208L208.677 276.262Z" fill="white"/>
<path d="M184.416 269.826L191.759 290.751L190.099 291.334L188.405 287.172C188.323 288.444 188.03 289.558 187.525 290.512C186.993 291.476 186.259 292.308 185.324 293.01C184.389 293.711 183.257 294.295 181.929 294.761L181.258 292.851L182.006 292.589C182.836 292.297 183.655 291.886 184.463 291.353C185.243 290.831 185.905 290.148 186.449 289.304C186.974 288.498 187.273 287.491 187.347 286.284C187.421 285.077 187.171 283.657 186.598 282.024L182.547 270.482L184.416 269.826Z" fill="white"/>
<path d="M162.121 274.569C164.099 274.139 165.976 274.212 167.752 274.787C169.499 275.368 171.015 276.404 172.299 277.896C173.561 279.423 174.442 281.333 174.94 283.626C175.456 286.006 175.44 288.14 174.89 290.031C174.34 291.921 173.376 293.496 171.999 294.756C170.621 296.016 168.944 296.86 166.966 297.29C164.959 297.726 163.082 297.653 161.335 297.072C159.559 296.497 158.044 295.461 156.788 293.962C155.503 292.47 154.602 290.535 154.086 288.155C153.588 285.862 153.611 283.756 154.154 281.837C154.704 279.946 155.668 278.371 157.045 277.112C158.423 275.852 160.115 275.004 162.121 274.569ZM162.495 276.288C161.004 276.612 159.706 277.269 158.6 278.26C157.466 279.257 156.653 280.559 156.162 282.166C155.671 283.774 155.655 285.638 156.116 287.76C156.577 289.881 157.364 291.571 158.478 292.83C159.563 294.095 160.825 294.931 162.265 295.339C163.682 295.782 165.121 295.845 166.583 295.527C168.045 295.21 169.343 294.552 170.477 293.556C171.612 292.559 172.424 291.257 172.916 289.649C173.385 288.076 173.389 286.23 172.928 284.108C172.467 281.987 171.694 280.294 170.609 279.029C169.495 277.77 168.23 276.919 166.813 276.476C165.396 276.034 163.957 275.971 162.495 276.288Z" fill="white"/>
<path d="M146.57 275.136L156.15 296.934L153.995 297.023L145.512 277.25L138.697 297.658L136.586 297.745L144.328 275.229L146.57 275.136Z" fill="white"/>
<path d="M125.985 271.785C128.05 272.056 129.776 272.772 131.162 273.931C132.518 275.086 133.489 276.589 134.074 278.441C134.658 280.294 134.795 282.398 134.485 284.753C134.171 287.138 133.481 289.118 132.416 290.694C131.321 292.266 129.958 293.403 128.327 294.105C126.664 294.833 124.843 295.067 122.865 294.806C120.742 294.527 119.031 293.813 117.733 292.666C116.43 291.548 115.517 290.17 114.993 288.533C114.469 286.896 114.327 285.161 114.569 283.329C114.607 283.038 114.643 282.762 114.678 282.5C114.712 282.238 114.767 281.935 114.842 281.59L133.164 284.002L132.94 285.704L116.494 283.538C116.151 286.363 116.613 288.583 117.88 290.2C119.146 291.816 120.914 292.774 123.182 293.073C124.578 293.257 125.929 293.109 127.235 292.63C128.54 292.151 129.674 291.294 130.635 290.06C131.568 288.822 132.17 287.17 132.442 285.105L132.545 284.32C132.836 282.11 132.699 280.228 132.135 278.674C131.566 277.15 130.717 275.958 129.588 275.099C128.458 274.24 127.181 273.717 125.756 273.53C123.924 273.288 122.356 273.511 121.052 274.197C119.745 274.913 118.712 276.019 117.952 277.517L115.989 277.258C116.536 276.029 117.283 274.958 118.232 274.048C119.151 273.133 120.26 272.466 121.558 272.045C122.852 271.653 124.328 271.566 125.985 271.785Z" fill="white"/>
<path d="M118.317 269.207C118.824 269.357 119.196 269.65 119.434 270.087C119.664 270.553 119.704 271.039 119.554 271.545C119.413 272.023 119.124 272.381 118.687 272.619C118.241 272.886 117.765 272.944 117.259 272.794C116.752 272.645 116.384 272.338 116.155 271.872C115.917 271.435 115.872 270.963 116.022 270.457C116.163 269.979 116.456 269.606 116.902 269.34C117.339 269.102 117.811 269.058 118.317 269.207Z" fill="white"/>
<path d="M99.113 260.876L84.7307 288.112L68.7394 279.667L69.5201 278.189L83.7606 285.709L89.7601 274.347L76.6869 267.444L77.4882 265.926L90.5614 272.83L96.5814 261.43L82.341 253.91L83.1217 252.431L99.113 260.876Z" fill="white"/>
<path d="M76.3494 244.067L68.9056 266.683L67.2436 265.31L74.1502 244.932L55.4399 255.556L53.8118 254.211L74.6195 242.637L76.3494 244.067Z" fill="white"/>
<path d="M62.964 227.448C64.28 228.985 65.1058 230.672 65.4416 232.508C65.7583 234.322 65.5644 236.148 64.8598 237.987C64.1138 239.822 62.8493 241.502 61.0664 243.028C59.2166 244.611 57.3291 245.609 55.4039 246.021C53.4786 246.433 51.6349 246.331 49.8728 245.716C48.1107 245.1 46.5716 244.024 45.2556 242.486C43.9206 240.926 43.0947 239.239 42.778 237.425C42.4422 235.589 42.6362 233.763 43.3598 231.947C44.0645 230.108 45.3417 228.397 47.1915 226.815C48.9744 225.289 50.8396 224.31 52.7871 223.879C54.7124 223.467 56.5561 223.569 58.3182 224.184C60.0803 224.8 61.6289 225.887 62.964 227.448ZM61.6268 228.592C60.635 227.433 59.441 226.602 58.0446 226.098C56.6292 225.572 55.0973 225.473 53.449 225.803C51.8006 226.133 50.1518 227.003 48.5026 228.414C46.8534 229.826 45.7386 231.32 45.1583 232.898C44.5589 234.453 44.4209 235.961 44.7443 237.422C45.0263 238.879 45.6536 240.176 46.6263 241.313C47.5989 242.449 48.793 243.281 50.2084 243.807C51.6238 244.333 53.1557 244.431 54.8041 244.102C56.4111 243.769 58.0392 242.897 59.6884 241.486C61.3376 240.074 62.4619 238.591 63.0613 237.036C63.6416 235.458 63.7908 233.94 63.5088 232.483C63.2268 231.026 62.5994 229.728 61.6268 228.592Z" fill="white"/>
<path d="M58.5257 219.814L31.2795 235.978L30.2692 234.275L57.5155 218.111L58.5257 219.814Z" fill="white"/>
<path d="M50.7096 203.354L34.1292 220.442L33.2346 218.481L48.3533 203.171L26.8813 204.549L26.005 202.627L49.7785 201.313L50.7096 203.354Z" fill="white"/>
<path d="M46.0566 183.024C46.5829 185.04 46.5704 186.907 46.0193 188.628C45.4607 190.32 44.4338 191.786 42.9385 193.025C41.4431 194.264 39.546 195.184 37.2471 195.785C34.9199 196.392 32.8257 196.5 30.9646 196.107C29.0961 195.685 27.5292 194.851 26.264 193.605C24.9629 192.338 24.0604 190.74 23.5563 188.81C23.0152 186.738 23.0313 184.885 23.6047 183.249C24.1497 181.621 25.0817 180.256 26.4006 179.154C27.7195 178.051 29.2729 177.267 31.0609 176.8C31.3448 176.726 31.6144 176.655 31.8698 176.589C32.1252 176.522 32.427 176.458 32.7749 176.398L37.4448 194.278L35.7845 194.711L31.5927 178.662C28.8472 179.409 26.9643 180.674 25.9443 182.456C24.9242 184.239 24.7033 186.237 25.2814 188.45C25.6372 189.813 26.283 191.008 27.2187 192.037C28.1544 193.066 29.3751 193.793 30.8808 194.219C32.379 194.616 34.1357 194.551 36.1508 194.025L36.9171 193.824C39.0741 193.261 40.7657 192.425 41.9921 191.317C43.19 190.216 43.9739 188.98 44.3438 187.61C44.7136 186.24 44.7169 184.86 44.3537 183.469C43.8867 181.681 43.0897 180.313 41.9628 179.364C40.8074 178.423 39.393 177.883 37.7196 177.744L37.2193 175.828C38.5644 175.871 39.8374 176.16 41.0383 176.695C42.2318 177.202 43.268 177.977 44.147 179.021C44.9975 180.072 45.6341 181.407 46.0566 183.024Z" fill="white"/>
<path d="M45.5541 174.951C45.6066 175.476 45.4751 175.931 45.1598 176.316C44.8153 176.705 44.3804 176.925 43.855 176.977C43.3588 177.027 42.9181 176.894 42.5329 176.579C42.1185 176.266 41.885 175.847 41.8326 175.322C41.7802 174.797 41.9262 174.34 42.2707 173.952C42.586 173.566 43.0064 173.348 43.5318 173.295C44.028 173.246 44.4833 173.377 44.8977 173.69C45.2829 174.005 45.5017 174.425 45.5541 174.951Z" fill="white"/>
</svg>
